<?xml version="1.0" encoding="utf-8"?>
<!-- Generator: Adobe Illustrator 16.2.1, SVG Export Plug-In . SVG Version: 6.00 Build 0)  -->
<!DOCTYPE svg PUBLIC "-//W3C//DTD SVG 1.1//EN" "http://www.w3.org/Graphics/SVG/1.1/DTD/svg11.dtd">
<svg version="1.1" xmlns="http://www.w3.org/2000/svg" xmlns:xlink="http://www.w3.org/1999/xlink" x="0px" y="0px" width="960px"
	 height="560px" viewBox="0 0 960 560" enable-background="new 0 0 960 560" xml:space="preserve">
<g id="Layer_1">
	<path d="M769.712,479.671c2.371-3.954,2.371-8.697,0.789-12.65l-56.927-114.645V46.395c0-7.116-5.534-12.65-12.65-12.65H237.604
		c-7.116,0-12.651,5.534-12.651,12.65v306.772l-56.926,113.854c-2.373,3.953-1.582,8.696,0.791,12.65
		c2.371,3.953,6.325,6.325,11.069,6.325h578.755C763.387,485.996,767.34,483.624,769.712,479.671z M250.255,59.836h437.229V343.68
		H250.255V59.836z M528.562,459.904l-8.697-17.394c-2.371-4.745-6.325-7.116-11.858-7.116h-79.066
		c-4.744,0-9.488,2.371-11.859,7.116l-8.698,17.394h-207.94l45.858-91.715H693.81l45.065,91.715H528.562z"/>
	<text transform="matrix(1 0 0 1 51 722.1992)" font-family="'HelveticaNeue-Bold'" font-size="22.4">Created by Gregor Črešnar</text>
	<text transform="matrix(1 0 0 1 51 744.6016)" font-family="'HelveticaNeue-Bold'" font-size="22.4">from the Noun Project</text>
</g>
<g id="Attribution">
	<text transform="matrix(1 0 0 1 521 503)" font-family="'MyriadPro-Regular'" font-size="12">Laptop by Gregor Črešnar from the Noun Project</text>
</g>
</svg>
